<?xml version="1.0" encoding="utf-8"?>
<!-- Generator: Adobe Illustrator 17.0.2, SVG Export Plug-In . SVG Version: 6.00 Build 0)  -->
<!DOCTYPE svg PUBLIC "-//W3C//DTD SVG 1.1//EN" "http://www.w3.org/Graphics/SVG/1.1/DTD/svg11.dtd">
<svg version="1.1" id="Lager_1" xmlns="http://www.w3.org/2000/svg" xmlns:xlink="http://www.w3.org/1999/xlink" x="0px" y="0px"
	 width="20.585px" height="20.585px" viewBox="0 0 20.585 20.585" enable-background="new 0 0 20.585 20.585" xml:space="preserve">
<g>
	<path fill="none" d="M15.047,11.753c0.142-0.462,0.219-0.952,0.219-1.46c0-0.508-0.077-0.999-0.219-1.46
		c0.05-0.017,0.102-0.032,0.158-0.032h5.26c-0.251-1.725-0.928-3.309-1.924-4.645l-3.719,3.719c-0.04,0.04-0.087,0.067-0.135,0.09
		c-0.466-0.878-1.187-1.599-2.065-2.065c0.023-0.048,0.05-0.095,0.09-0.135l3.719-3.719c-1.337-0.996-2.92-1.673-4.645-1.924v5.26
		c0,0.056-0.014,0.108-0.032,0.158c-0.462-0.142-0.952-0.219-1.46-0.219c-0.508,0-0.999,0.077-1.46,0.219
		C8.814,5.487,8.8,5.436,8.8,5.38V0.12C7.075,0.372,5.491,1.048,4.155,2.044l3.719,3.719c0.04,0.04,0.067,0.087,0.09,0.135
		C7.086,6.365,6.365,7.086,5.899,7.964c-0.048-0.023-0.095-0.05-0.135-0.09L2.044,4.155C1.048,5.491,0.372,7.075,0.12,8.8h5.26
		c0.056,0,0.108,0.014,0.158,0.032c-0.142,0.462-0.219,0.952-0.219,1.46c0,0.508,0.077,0.999,0.219,1.46
		c-0.05,0.017-0.102,0.032-0.158,0.032H0.12c0.251,1.725,0.928,3.309,1.924,4.645l3.719-3.719c0.04-0.04,0.087-0.067,0.135-0.09
		c0.466,0.878,1.187,1.599,2.065,2.065c-0.023,0.048-0.05,0.095-0.09,0.135L4.155,18.54c1.337,0.996,2.92,1.673,4.645,1.924v-5.26
		c0-0.056,0.014-0.108,0.032-0.158c0.462,0.142,0.952,0.219,1.46,0.219c0.508,0,0.999-0.077,1.46-0.219
		c0.017,0.05,0.032,0.102,0.032,0.158v5.26c1.725-0.251,3.309-0.928,4.645-1.924l-3.719-3.719c-0.04-0.04-0.067-0.087-0.09-0.135
		c0.878-0.466,1.599-1.187,2.065-2.065c0.048,0.023,0.095,0.05,0.135,0.09l3.719,3.719c0.996-1.337,1.673-2.92,1.924-4.645h-5.26
		C15.149,11.785,15.097,11.77,15.047,11.753z"/>
	<path opacity="0.8" fill="#2D2D2D" d="M5.537,11.753c-0.142-0.462-0.219-0.952-0.219-1.46c0-0.508,0.077-0.999,0.219-1.46
		C5.487,8.814,5.436,8.8,5.38,8.8H0.12C0.049,9.288,0,9.784,0,10.292c0,0.508,0.049,1.004,0.12,1.492h5.26
		C5.436,11.785,5.487,11.77,5.537,11.753z"/>
	<path opacity="0.4" fill="#2D2D2D" d="M20.464,8.8h-5.26c-0.056,0-0.108,0.014-0.158,0.032c0.142,0.462,0.219,0.952,0.219,1.46
		c0,0.508-0.077,0.999-0.219,1.46c0.05,0.017,0.102,0.032,0.158,0.032h5.26c0.071-0.488,0.12-0.984,0.12-1.492
		C20.584,9.784,20.535,9.288,20.464,8.8z"/>
	<path opacity="0.1" fill="#2D2D2D" d="M8.832,5.537c0.462-0.142,0.952-0.219,1.46-0.219c0.508,0,0.999,0.077,1.46,0.219
		c0.017-0.05,0.032-0.102,0.032-0.158V0.12C11.296,0.049,10.801,0,10.292,0S9.289,0.049,8.8,0.12v5.26
		C8.8,5.436,8.814,5.487,8.832,5.537z"/>
	<path opacity="0.6" fill="#2D2D2D" d="M11.753,15.047c-0.462,0.142-0.952,0.219-1.46,0.219c-0.508,0-0.999-0.077-1.46-0.219
		C8.814,15.097,8.8,15.149,8.8,15.205v5.26c0.488,0.071,0.984,0.12,1.492,0.12s1.004-0.049,1.492-0.12v-5.26
		C11.785,15.149,11.77,15.097,11.753,15.047z"/>
	<path opacity="0.9" fill="#2D2D2D" d="M5.899,7.964c0.466-0.878,1.187-1.599,2.065-2.065c-0.023-0.048-0.05-0.095-0.09-0.135
		L4.155,2.044c-0.802,0.598-1.512,1.308-2.11,2.11l3.719,3.719C5.803,7.914,5.85,7.941,5.899,7.964z"/>
	<path opacity="0.5" fill="#2D2D2D" d="M14.686,12.621c-0.466,0.878-1.187,1.599-2.065,2.065c0.023,0.048,0.05,0.095,0.09,0.135
		l3.719,3.719c0.802-0.598,1.512-1.308,2.11-2.11l-3.719-3.719C14.781,12.671,14.734,12.644,14.686,12.621z"/>
	<path opacity="0.2" fill="#2D2D2D" d="M12.621,5.899c0.878,0.466,1.599,1.187,2.065,2.065c0.048-0.023,0.095-0.05,0.135-0.09
		l3.719-3.719c-0.598-0.802-1.308-1.512-2.11-2.11l-3.719,3.719C12.671,5.803,12.644,5.85,12.621,5.899z"/>
	<path opacity="0.7" fill="#2D2D2D" d="M7.964,14.686c-0.878-0.466-1.599-1.187-2.065-2.065c-0.048,0.023-0.095,0.05-0.135,0.09
		L2.044,16.43c0.598,0.802,1.308,1.512,2.11,2.11l3.719-3.719C7.914,14.781,7.941,14.734,7.964,14.686z"/>
</g>
</svg>
